Coordinates
version=1
nRows=13
nColumns=63
inDegrees=yes

Units are S.I. units (second, meters, Newtons, ...)
If the header above contains a line with 'inDegrees', this indicates whether rotational values are in degrees (yes) or radians (no).

endheader
time	pelvis_tilt	pelvis_list	pelvis_rotation	pelvis_tx	pelvis_ty	pelvis_tz	hip_flexion_r	hip_adduction_r	hip_rotation_r	knee_angle_r	knee_angle_r_beta	ankle_angle_r	subtalar_angle_r	mtp_angle_r	hip_flexion_l	hip_adduction_l	hip_rotation_l	knee_angle_l	knee_angle_l_beta	ankle_angle_l	subtalar_angle_l	mtp_angle_l	L5_S1_Flex_Ext	L5_S1_Lat_Bending	L5_S1_axial_rotation	L4_L5_Flex_Ext	L4_L5_Lat_Bending	L4_L5_axial_rotation	L3_L4_Flex_Ext	L3_L4_Lat_Bending	L3_L4_axial_rotation	L2_L3_Flex_Ext	L2_L3_Lat_Bending	L2_L3_axial_rotation	L1_L2_Flex_Ext	L1_L2_Lat_Bending	L1_L2_axial_rotation	L1_T12_Flex_Ext	L1_T12_Lat_Bending	L1_T12_axial_rotation	Abs_r3	Abs_r2	Abs_r1	Abs_t1	Abs_t2	neck_flexion	neck_bending	neck_rotation	arm_flex_r	arm_add_r	arm_rot_r	elbow_flex_r	pro_sup_r	wrist_flex_r	wrist_dev_r	arm_flex_l	arm_add_l	arm_rot_l	elbow_flex_l	pro_sup_l	wrist_flex_l	wrist_dev_l
5.658537	-0.963140	3.622136	88.644107	0.208142	0.682268	0.962375	4.844550	-2.198008	1.493796	13.970290	0.243828	22.464644	6.992025	0.000000	5.743304	-0.832409	-5.378059	14.956706	0.261044	25.953204	-8.361226	0.000000	-0.728554	-0.306096	1.510245	-1.352999	-0.407108	1.604635	-1.196942	-0.744242	1.604635	-0.832665	-0.744242	1.321464	-0.676536	-0.624191	1.227074	-0.416296	-0.474143	1.132684	-5.203992	-3.462621	8.399530	0.000000	0.000000	0.286024	10.488162	-3.835890	-246.376871	-47.140243	-318.008387	149.830130	32.750843	2.818768	17.445762	115.031177	-34.009484	55.085462	149.652555	63.695423	-13.587737	13.564478
5.682927	-0.777328	3.676508	88.984749	0.207505	0.682053	0.963020	4.869934	-2.014588	1.345434	14.144602	0.246870	22.470581	6.607905	0.000000	5.919788	-0.986759	-4.802246	15.268496	0.266486	25.983229	-8.774431	0.000000	-0.736568	-0.268388	1.498150	-1.367881	-0.356956	1.591784	-1.210108	-0.652558	1.591784	-0.841824	-0.652558	1.310881	-0.683977	-0.547296	1.217247	-0.420875	-0.415732	1.123612	-5.261235	-3.036054	8.332261	0.000000	0.000000	0.211262	10.285818	-3.908052	-245.315473	-47.234037	-317.219136	149.831562	29.355099	3.588570	18.305152	114.740779	-33.800575	55.354329	149.651715	62.945966	-13.270238	13.170610
5.707317	-0.579459	3.738272	89.205326	0.206883	0.681860	0.963462	4.861512	-1.824618	1.255908	14.269107	0.249043	22.484412	6.307375	0.000000	6.008371	-1.144041	-4.322992	15.477643	0.270136	25.984080	-9.171060	0.000000	-0.739592	-0.225892	1.517057	-1.373497	-0.300436	1.611873	-1.215076	-0.549233	1.611873	-0.845280	-0.549233	1.327425	-0.686786	-0.460638	1.232608	-0.422603	-0.349906	1.137792	-5.282835	-2.555330	8.437414	0.000000	0.000000	0.223658	10.056051	-4.073501	-244.376427	-47.396645	-316.596185	149.832488	26.509977	4.194947	19.362601	114.512618	-33.550433	55.631595	149.637319	62.029028	-13.150913	12.729281
5.731707	-0.353926	3.804874	89.340237	0.206224	0.681679	0.963689	4.810995	-1.612545	1.208158	14.331885	0.250139	22.511081	6.077403	0.000000	6.020133	-1.322063	-3.911105	15.599847	0.272269	25.981039	-9.529342	0.000000	-0.736588	-0.176824	1.563686	-1.367918	-0.235175	1.661417	-1.210140	-0.429929	1.661417	-0.841846	-0.429929	1.368225	-0.683996	-0.360579	1.270495	-0.420886	-0.273900	1.172765	-5.261375	-2.000264	8.696754	0.000000	0.000000	0.305926	9.762910	-4.380541	-243.503694	-47.659218	-316.027920	149.833192	24.178355	4.578830	20.355358	114.330998	-33.251669	55.930244	149.615711	60.740187	-13.209143	12.224717
5.756098	-0.126338	3.895037	89.417314	0.205548	0.681534	0.963777	4.713090	-1.404658	1.169616	14.352375	0.250496	22.566805	5.924351	0.000000	5.962760	-1.496164	-3.536106	15.669292	0.273481	25.966322	-9.874577	0.000000	-0.730825	-0.123752	1.621720	-1.357214	-0.164590	1.723077	-1.200672	-0.300891	1.723077	-0.835259	-0.300891	1.419005	-0.678644	-0.252355	1.317647	-0.417593	-0.191692	1.216290	-5.220207	-1.399908	9.019518	0.000000	0.000000	0.427916	9.383981	-4.708600	-242.856931	-47.871471	-315.674972	149.834060	22.637518	4.664176	21.283903	114.131849	-32.960769	56.137238	149.592555	59.481906	-13.311924	11.700476
5.780488	0.110613	4.014534	89.434148	0.204831	0.681446	0.963747	4.552639	-1.196772	1.140719	14.310955	0.249773	22.637875	5.857733	0.000000	5.836139	-1.676245	-3.230802	15.694888	0.273927	25.960528	-10.168699	0.000000	-0.722814	-0.066396	1.698228	-1.342337	-0.088307	1.804368	-1.187510	-0.161435	1.804368	-0.826104	-0.161435	1.485950	-0.671205	-0.135395	1.379811	-0.413016	-0.102847	1.273671	-5.162985	-0.751084	9.445037	0.000000	0.000000	0.544524	8.900640	-5.143121	-242.336528	-48.080179	-315.432220	149.835028	21.917994	4.512267	21.864843	113.865297	-32.619030	56.266979	149.570584	58.077319	-13.412459	10.980828
5.804878	0.349471	4.192354	89.339889	0.204148	0.681438	0.963654	4.320026	-0.995775	1.172408	14.230667	0.248372	22.725133	5.875016	0.000000	5.616015	-1.859989	-3.074889	15.690157	0.273845	25.981208	-10.385540	0.000000	-0.717910	-0.007556	1.803304	-1.333231	-0.010050	1.916010	-1.179455	-0.018372	1.916010	-0.820500	-0.018372	1.577891	-0.666651	-0.015408	1.465184	-0.410214	-0.011704	1.352478	-5.127961	-0.085476	10.029433	0.000000	0.000000	0.627490	8.363466	-5.717909	-241.924046	-48.286808	-315.341237	149.836848	21.824990	4.303258	22.129218	113.555051	-32.184033	56.394821	149.554285	56.354420	-13.575166	9.988426
5.829268	0.638058	4.400782	89.200145	0.203354	0.681458	0.963586	4.048256	-0.757628	1.203678	14.133346	0.246673	22.804289	5.939948	0.000000	5.374903	-2.099109	-3.014189	15.724581	0.274446	26.076588	-10.508527	0.000000	-0.714136	0.059650	1.929647	-1.326222	0.079335	2.050250	-1.173254	0.145033	2.050250	-0.816186	0.145033	1.688441	-0.663147	0.121639	1.567838	-0.408057	0.092398	1.447235	-5.101001	0.674774	10.732116	0.000000	0.000000	0.678075	7.703298	-6.417963	-241.387761	-48.544415	-315.244610	149.838845	22.919579	3.908919	21.790399	113.172659	-31.619254	56.468131	149.543909	54.460580	-13.718337	8.796007
5.853659	0.960680	4.672082	88.982552	0.202550	0.681565	0.963507	3.710558	-0.496585	1.257679	14.028730	0.244848	22.862318	6.077692	0.000000	5.059673	-2.378434	-3.093534	15.763868	0.275131	26.233854	-10.539879	0.000000	-0.716083	0.130828	2.079186	-1.329838	0.174001	2.209135	-1.176453	0.318095	2.209135	-0.818411	0.318095	1.819288	-0.664955	0.266784	1.689338	-0.409170	0.202652	1.559389	-5.114909	1.479951	11.563807	0.000000	0.000000	0.622544	6.993008	-7.268816	-240.775747	-48.856761	-315.182807	149.842053	23.950065	3.762191	21.239923	112.748146	-30.938715	56.616837	149.533535	52.106194	-13.832983	7.264031
5.878049	1.361357	4.975493	88.742427	0.201560	0.681699	0.963476	3.335797	-0.177537	1.259941	13.922158	0.242987	22.890018	6.306061	0.000000	4.733308	-2.724755	-3.150520	15.851248	0.276656	26.447394	-10.625982	0.000000	-0.722916	0.212998	2.246089	-1.342527	0.283287	2.386470	-1.187679	0.517882	2.386470	-0.826221	0.517882	1.965328	-0.671300	0.434345	1.824947	-0.413074	0.329933	1.684567	-5.163716	2.409471	12.492073	0.000000	0.000000	0.535436	6.215530	-8.202883	-239.874420	-49.285707	-315.146087	149.845952	24.466876	4.149940	20.601899	112.217346	-30.115672	56.654364	149.527675	49.735769	-13.826758	5.795871
5.902439	1.798507	5.299652	88.465885	0.200554	0.681846	0.963487	2.947952	0.173791	1.285187	13.829043	0.241362	22.902376	6.559962	0.000000	4.401300	-3.111856	-3.270178	15.975124	0.278819	26.712645	-10.689107	0.000000	-0.734644	0.298705	2.418322	-1.364308	0.397278	2.569467	-1.206947	0.726272	2.569467	-0.839625	0.726272	2.116031	-0.682191	0.609120	1.964886	-0.419776	0.462695	1.813741	-5.247492	3.379016	13.449979	0.000000	0.000000	0.419012	5.447537	-9.102064	-238.845132	-49.752675	-315.159124	149.850550	25.548896	4.521634	19.804606	111.681770	-29.274284	56.645031	149.527199	47.529107	-13.744404	4.475096
5.926829	2.212583	5.630863	88.173389	0.199707	0.682011	0.963507	2.566870	0.513414	1.366792	13.759527	0.240149	22.906730	6.767981	0.000000	4.081227	-3.487564	-3.443240	16.136699	0.281639	26.998206	-10.738614	0.000000	-0.749933	0.377485	2.576910	-1.392701	0.502055	2.737967	-1.232066	0.917817	2.737967	-0.857099	0.917817	2.254796	-0.696388	0.769767	2.093739	-0.428512	0.584724	1.932682	-5.356699	4.270184	14.332000	0.000000	0.000000	0.263356	4.767609	-9.874409	-237.878133	-50.192290	-315.138761	149.855608	27.455884	4.456340	18.886098	111.220103	-28.532661	56.639595	149.532618	45.699896	-13.617928	3.454871
5.951220	2.601710	5.947306	87.852849	0.199074	0.682186	0.963498	2.223501	0.843220	1.506719	13.730434	0.239641	22.911723	6.943947	0.000000	3.791748	-3.856305	-3.692077	16.334053	0.285083	27.299514	-10.763774	0.000000	-0.766751	0.449615	2.721953	-1.423934	0.597988	2.892075	-1.259696	1.093194	2.892075	-0.876320	1.093194	2.381709	-0.712005	0.916855	2.211587	-0.438122	0.696454	2.041465	-5.476829	5.086135	15.138688	0.000000	0.000000	0.077600	4.142244	-10.451991	-236.915654	-50.577860	-314.931619	149.860598	29.645190	4.062361	17.923105	110.807226	-27.954807	56.648543	149.541844	44.413670	-13.521196	2.765527
